<svg width="320" height="320" viewBox="0 0 320 320" fill="none" xmlns="http://www.w3.org/2000/svg">
  <defs>
    <linearGradient id="g1" x1="40" y1="32" x2="270" y2="280" gradientUnits="userSpaceOnUse">
      <stop stop-color="#F7D98A"/>
      <stop offset="1" stop-color="#8B5E34"/>
    </linearGradient>
  </defs>
  <rect width="320" height="320" rx="40" fill="#2A160E"/>
  <path d="M164.5 233C164.5 190.216 178.929 148.53 205.497 114.997C213.206 105.271 226.999 103.637 236.725 111.346C246.452 119.055 248.086 132.847 240.376 142.574C218.764 169.848 207 203.786 207 239H164.5V233Z" fill="url(#g1)"/>
  <path d="M155.5 239C155.5 189.956 139.105 150.538 108.972 120.44C100.377 111.854 100.371 97.9351 108.957 89.3408C117.543 80.7465 131.462 80.7404 140.056 89.3269C178.331 127.557 198.5 177.421 198.5 239H155.5Z" fill="#D6A95C"/>
  <path d="M83.0344 178.282C64.7195 152.032 69.6141 115.891 95.8643 97.5759C122.114 79.2609 158.255 84.1556 176.57 110.406C162.489 114.113 149.543 121.823 139.33 132.727C131.48 141.109 125.221 150.628 120.789 160.866C106.181 162.05 92.4591 168.729 83.0344 178.282Z" fill="#F3D07A"/>
  <path d="M233.093 86.7876C256.783 103.446 262.482 136.16 245.824 159.849C229.165 183.539 196.452 189.239 172.762 172.58C178.515 161.862 186.079 152.238 195.026 144.084C205.722 134.335 218.088 127.012 231.326 122.4C224.9 110.237 223.96 97.4907 233.093 86.7876Z" fill="#A36A3C"/>
  <circle cx="159.5" cy="254.5" r="13.5" fill="#F7D98A"/>
</svg>
